# xmcd
#
# Track frame offsets: 
#        150
#        22998
#        42363
#        69404
#        93213
#        110607
#        128042
#        137076
#        158795
#        177944
#        197016
#        214925
#        241925
#
# Disc length: 3526 seconds
#
# Revision: 0
# Processed by: cddbd v1.5.2PL0 Copyright (c) Steve Scherf et al.
# Submitted via: ExactAudioCopy v0.95b3
#
DISCID=ae0dc40d
DTITLE=Blur  - Midlife - A Beginners Guide To Blur - Disc 1
DYEAR=1900
DGENRE=
TTITLE0=Beetlebum
TTITLE1=Girls And Boys
TTITLE2=For Tomorrow
TTITLE3=Coffee And TV
TTITLE4=Out Of Time
TTITLE5=Blue Jeans
TTITLE6=Song 2
TTITLE7=Bugman
TTITLE8=He Thought Of Cars
TTITLE9=Death Of A Party
TTITLE10=The Universal
TTITLE11=Sing
TTITLE12=This Is A Low
EXTD=
EXTT0=
EXTT1=
EXTT2=
EXTT3=
EXTT4=
EXTT5=
EXTT6=
EXTT7=
EXTT8=
EXTT9=
EXTT10=
EXTT11=
EXTT12=
PLAYORDER=
